<svg width="69" height="69" viewBox="0 0 69 69" fill="none" xmlns="http://www.w3.org/2000/svg">
<rect width="69" height="69" fill="white"/>
<path d="M54.2074 40.704V42H42.5434V40.704H45.3754C45.9834 40.704 46.3834 40.336 46.5754 39.6V28.272C46.5754 26.576 46.1914 25.184 45.4234 24.096C44.6554 22.976 43.5834 22.416 42.2074 22.416C40.8314 22.416 39.5194 22.944 38.2714 24C37.0234 24.992 36.3994 25.92 36.3994 26.784L36.3514 39.6C36.5114 40.336 36.8794 40.704 37.4554 40.704H40.2394V42H28.6234V40.704H31.3594C31.9674 40.704 32.3514 40.336 32.5114 39.6V28.272C32.5114 26.64 32.1434 25.28 31.4074 24.192C30.6714 23.008 29.5834 22.416 28.1434 22.416C26.7354 22.416 25.4234 22.912 24.2074 23.904C23.0234 24.864 22.4314 25.824 22.4314 26.784V39.6C22.5274 40.336 22.8794 40.704 23.4874 40.704H26.2714V42H14.6074V40.704H17.3914C17.9994 40.704 18.3514 40.336 18.4474 39.6V23.04C18.4154 21.952 17.8554 21.408 16.7674 21.408H14.5594V20.064H22.4314V23.712C23.0714 22.56 23.9194 21.648 24.9754 20.976C26.3834 20.016 27.9514 19.536 29.6794 19.536C32.7194 19.536 34.8634 20.992 36.1114 23.904C37.9994 20.992 40.5434 19.536 43.7434 19.536C45.6954 19.536 47.2954 20.224 48.5434 21.6C49.8234 22.944 50.4634 24.768 50.4634 27.072L50.4154 39.6C50.4794 40.336 50.8154 40.704 51.4234 40.704H54.2074Z" fill="#1E1E1E"/>
<line x1="8" y1="51" x2="60" y2="51" stroke="#1E1E1E" stroke-width="2"/>
</svg>
